<?xml version="1.0" encoding="iso-8859-1"?>
<!-- Generator: Adobe Illustrator 19.0.0, SVG Export Plug-In . SVG Version: 6.00 Build 0)  -->
<svg version="1.1" id="Layer_1" xmlns="http://www.w3.org/2000/svg" xmlns:xlink="http://www.w3.org/1999/xlink" x="0px" y="0px"
	 viewBox="0 0 496 496" style="enable-background:new 0 0 496 496;" xml:space="preserve">
<g>
	<g>
		<g>
			<path d="M352,112V24c0-13.232-10.768-24-24-24s-24,10.768-24,24v85.808c0,30.664-22.952,56.168-52.256,58.064
				c-15.656,1.08-30.616-4.304-42.032-15.008C198.288,142.16,192,127.648,192,112v-8c0-13.232-10.768-24-24-24s-24,10.768-24,24
				v4.816c0,34.032,16.152,66.472,42.856,86.496l28.168,23.6L185.756,336H144v160h208V336h-41.756l-29.252-117.016l27.68-22.648
				C335.808,176.792,352,145.256,352,112z M336,448h-16v16h16v16H160v-16h144v-16H160v-96h176V448z M263.008,213.016L293.756,336
				h-91.512l30.732-122.912L196.8,182.784c-23.04-17.288-36.8-44.936-36.8-73.968V104c0-4.416,3.592-8,8-8s8,3.584,8,8v8
				c0,19.832,8.296,38.976,22.768,52.544c14.672,13.76,33.872,20.576,54.008,19.304C290.472,181.4,320,148.888,320,109.808V24
				c0-4.416,3.592-8,8-8c4.408,0,8,3.584,8,8v88c0,28.136-13.712,54.808-37.064,71.648L263.008,213.016z"/>
			<path d="M248,152c22.056,0,40-17.944,40-40c0-22.056-17.944-40-40-40c-22.056,0-40,17.944-40,40C208,134.056,225.944,152,248,152
				z M248,88c13.232,0,24,10.768,24,24s-10.768,24-24,24s-24-10.768-24-24S234.768,88,248,88z"/>
			<path d="M320,368H176v64h144V368z M304,416H192v-32h112V416z"/>
		</g>
	</g>
</g>
<g>
</g>
<g>
</g>
<g>
</g>
<g>
</g>
<g>
</g>
<g>
</g>
<g>
</g>
<g>
</g>
<g>
</g>
<g>
</g>
<g>
</g>
<g>
</g>
<g>
</g>
<g>
</g>
<g>
</g>
</svg>
