<svg height="51" viewBox="0 0 216 51" fill="none" xmlns="http://www.w3.org/2000/svg">
<path d="M216 25.4102L193.633 50.7764L180 50.7763L202.306 25.3882L180 0L193.594 2.46039e-05L216 25.4102Z" fill="#FCFC54"/>
<path d="M156 24.8453L133.633 49.6475L120 49.6474L142.306 24.8237L120 0L133.594 2.40569e-05L156 24.8453Z" fill="#F60D4F"/>
<path d="M96 24.8453L73.6326 49.6475L60 49.6474L82.306 24.8237L60 0L73.5942 2.40569e-05L96 24.8453Z" fill="#FCFC54"/>
<path d="M36 24.8453L13.6326 49.6475L0 49.6474L22.306 24.8237L0 0L13.5942 2.40569e-05L36 24.8453Z" fill="#F60D4F"/>
</svg>
