<svg width="1920" height="960" viewBox="0 0 1920 960" fill="none" xmlns="http://www.w3.org/2000/svg">
<g clip-path="url(#clip0)">
<rect width="1920" height="960" fill="white"/>
<rect width="1920" height="960" fill="#F60D4F"/>
<mask id="mask0" mask-type="alpha" maskUnits="userSpaceOnUse" x="0" y="0" width="1920" height="954">
<rect width="1920" height="954" fill="#F60D4F"/>
</mask>
<g mask="url(#mask0)">
<g filter="url(#filter0_f)">
<ellipse cx="886.5" cy="389.053" rx="197.5" ry="196.266" fill="#FCFC54" fill-opacity="0.6"/>
</g>
<g filter="url(#filter1_f)">
<ellipse cx="0.5" cy="949.528" rx="197.5" ry="196.266" fill="#0C0C6D" fill-opacity="0.3"/>
</g>
<g filter="url(#filter2_f)">
<ellipse cx="170.5" cy="351.291" rx="98.5" ry="97.8844" fill="#F99121" fill-opacity="0.5"/>
</g>
<g filter="url(#filter3_f)">
<ellipse cx="1625.5" cy="610.659" rx="260.5" ry="258.872" fill="#7FDAEF" fill-opacity="0.75"/>
</g>
</g>
<path d="M1308.54 400C1528.54 308 1510.04 176.756 1500.54 0H2039.54C2039.54 0 1751.54 176 1671.54 360C1591.53 544 1351.54 576 1159.54 708C967.535 840 1452.54 960 1452.54 960H1028.54C916.023 893.757 796.536 772 848.536 680C900.536 588 1088.54 492 1308.54 400Z" fill="white"/>
</g>
<defs>
<filter id="filter0_f" x="539" y="42.7875" width="695" height="692.531" filterUnits="userSpaceOnUse" color-interpolation-filters="sRGB">
<feFlood flood-opacity="0" result="BackgroundImageFix"/>
<feBlend mode="normal" in="SourceGraphic" in2="BackgroundImageFix" result="shape"/>
<feGaussianBlur stdDeviation="75" result="effect1_foregroundBlur"/>
</filter>
<filter id="filter1_f" x="-347" y="603.263" width="695" height="692.531" filterUnits="userSpaceOnUse" color-interpolation-filters="sRGB">
<feFlood flood-opacity="0" result="BackgroundImageFix"/>
<feBlend mode="normal" in="SourceGraphic" in2="BackgroundImageFix" result="shape"/>
<feGaussianBlur stdDeviation="75" result="effect1_foregroundBlur"/>
</filter>
<filter id="filter2_f" x="-78" y="103.406" width="497" height="495.769" filterUnits="userSpaceOnUse" color-interpolation-filters="sRGB">
<feFlood flood-opacity="0" result="BackgroundImageFix"/>
<feBlend mode="normal" in="SourceGraphic" in2="BackgroundImageFix" result="shape"/>
<feGaussianBlur stdDeviation="75" result="effect1_foregroundBlur"/>
</filter>
<filter id="filter3_f" x="1215" y="201.788" width="821" height="817.744" filterUnits="userSpaceOnUse" color-interpolation-filters="sRGB">
<feFlood flood-opacity="0" result="BackgroundImageFix"/>
<feBlend mode="normal" in="SourceGraphic" in2="BackgroundImageFix" result="shape"/>
<feGaussianBlur stdDeviation="75" result="effect1_foregroundBlur"/>
</filter>
<clipPath id="clip0">
<rect width="1920" height="960" fill="white"/>
</clipPath>
</defs>
</svg>
